<svg xmlns="http://www.w3.org/2000/svg" version="1.1" xmlns:xlink="http://www.w3.org/1999/xlink" xmlns:svgjs="http://svgjs.dev/svgjs" width="2000" height="964" viewBox="0 0 2000 964"><g transform="matrix(1,0,0,1,-1.2121212121212466,-2.4609389601945963)"><svg viewBox="0 0 396 191" data-background-color="#c8c8c8" preserveAspectRatio="xMidYMid meet" height="964" width="2000" xmlns="http://www.w3.org/2000/svg" xmlns:xlink="http://www.w3.org/1999/xlink"><g id="tight-bounds" transform="matrix(1,0,0,1,0.2400000000000091,0.48759267779789184)"><svg viewBox="0 0 395.52 190.02481464440422" height="190.02481464440422" width="395.52"><g><svg viewBox="0 0 395.52000000000004 190.02481464440424" height="190.02481464440422" width="395.52"><g transform="matrix(1,0,0,1,0,117.44295886771776)"><svg viewBox="0 0 395.52000000000004 72.58185577668648" height="72.58185577668648" width="395.52000000000004"><g id="textblocktransform"><svg viewBox="0 0 395.52000000000004 72.58185577668648" height="72.58185577668648" width="395.52000000000004" id="textblock"><g><svg viewBox="0 0 395.52000000000004 72.58185577668648" height="72.58185577668648" width="395.52000000000004"><g transform="matrix(1,0,0,1,0,0)"><svg width="395.52000000000004" viewBox="1.1 -35 193.43 35.5" height="72.58185577668648" data-palette-color="#6b7280"><path d="M15.7 0Q14.75 0 14.13-0.55 13.5-1.1 13.05-2.3L13.05-2.3 1.1-35 4.9-35 15.8-4.45 15.85-4.45 26.8-35 30.6-35 17.6 0 15.7 0ZM40 0.4Q35.8 0.4 33.25-2.08 30.7-4.55 30.7-8.65L30.7-8.65 30.7-15.8Q30.7-20.1 33.25-22.73 35.8-25.35 40-25.35L40-25.35 44.1-25.35Q48.1-25.35 50.55-22.8 53-20.25 53-16.05L53-16.05 53-11.65 34.3-11.65 34.3-8.65Q34.3-6.05 35.87-4.42 37.45-2.8 40-2.8L40-2.8 43.8-2.8Q46.3-2.8 47.85-4.17 49.4-5.55 49.4-7.85L49.4-7.85 52.9-7.85Q52.9-4.15 50.4-1.88 47.9 0.4 43.8 0.4L43.8 0.4 40 0.4ZM34.3-14.75L49.4-14.75 49.4-16.05Q49.4-18.8 47.95-20.48 46.5-22.15 44.1-22.15L44.1-22.15 40-22.15Q37.45-22.15 35.87-20.4 34.3-18.65 34.3-15.8L34.3-15.8 34.3-14.75ZM67.4 0.4Q63.3 0.4 60.8-2.08 58.3-4.55 58.3-8.65L58.3-8.65 58.3-15.8Q58.3-20.1 60.8-22.73 63.3-25.35 67.34-25.35L67.34-25.35 71.45-25.35Q75.3-25.35 77.65-23.2 80-21.05 80-17.55L80-17.55 76.5-17.55Q76.5-19.6 75.12-20.88 73.75-22.15 71.45-22.15L71.45-22.15 67.34-22.15Q64.9-22.15 63.4-20.4 61.9-18.65 61.9-15.8L61.9-15.8 61.9-8.65Q61.9-6 63.42-4.4 64.95-2.8 67.4-2.8L67.4-2.8 71.5-2.8Q73.84-2.8 75.27-4.45 76.7-6.1 76.7-8.85L76.7-8.85 80.2-8.85Q80.2-4.7 77.8-2.15 75.4 0.4 71.5 0.4L71.5 0.4 67.4 0.4ZM95.69 0Q91.74 0 90.02-1.7 88.29-3.4 88.29-7.3L88.29-7.3 88.29-21.75 83.89-21.75 83.89-24.95 88.29-24.95 88.29-32.5 91.89-32.5 91.89-24.95 98.39-24.95 98.39-21.75 91.89-21.75 91.89-7.3Q91.89-5.1 92.77-4.15 93.64-3.2 95.69-3.2L95.69-3.2 98.39-3.2 98.39 0 95.69 0ZM112.49 0.4Q108.29 0.4 105.74-2.2 103.19-4.8 103.19-9.05L103.19-9.05 103.19-15.9Q103.19-20.15 105.77-22.75 108.34-25.35 112.59-25.35L112.59-25.35 116.69-25.35Q120.94-25.35 123.52-22.75 126.09-20.15 126.09-15.9L126.09-15.9 126.09-9.05Q126.09-4.8 123.49-2.2 120.89 0.4 116.59 0.4L116.59 0.4 112.49 0.4ZM112.49-2.8L116.59-2.8Q119.29-2.8 120.89-4.53 122.49-6.25 122.49-9.05L122.49-9.05 122.49-15.9Q122.49-18.7 120.89-20.43 119.29-22.15 116.69-22.15L116.69-22.15 112.59-22.15Q109.99-22.15 108.39-20.43 106.79-18.7 106.79-15.9L106.79-15.9 106.79-9.05Q106.79-6.2 108.34-4.5 109.89-2.8 112.49-2.8L112.49-2.8ZM132.69 0L132.69-24.95 136.19-24.95 136.19-21.1Q137.19-22.85 139.21-23.95 141.24-25.05 143.44-25.05L143.44-25.05 145.64-25.05 145.64-21.8 143.44-21.8Q140.24-21.8 138.26-19.78 136.29-17.75 136.29-14.4L136.29-14.4 136.29 0 132.69 0ZM150.33 0.5Q149.13 0.5 148.38-0.25 147.63-1 147.63-2.2L147.63-2.2Q147.63-3.4 148.38-4.15 149.13-4.9 150.33-4.9L150.33-4.9Q151.53-4.9 152.28-4.15 153.03-3.4 153.03-2.2L153.03-2.2Q153.03-1 152.28-0.25 151.53 0.5 150.33 0.5L150.33 0.5ZM162.33-28.7Q161.13-28.7 160.38-29.45 159.63-30.2 159.63-31.4L159.63-31.4Q159.63-32.6 160.38-33.35 161.13-34.1 162.33-34.1L162.33-34.1Q163.53-34.1 164.28-33.35 165.03-32.6 165.03-31.4L165.03-31.4Q165.03-30.2 164.28-29.45 163.53-28.7 162.33-28.7L162.33-28.7ZM160.53 0L160.53-24.95 164.13-24.95 164.13 0 160.53 0ZM180.93 0.4Q176.73 0.4 174.18-2.2 171.63-4.8 171.63-9.05L171.63-9.05 171.63-15.9Q171.63-20.15 174.2-22.75 176.78-25.35 181.03-25.35L181.03-25.35 185.13-25.35Q189.38-25.35 191.95-22.75 194.53-20.15 194.53-15.9L194.53-15.9 194.53-9.05Q194.53-4.8 191.93-2.2 189.33 0.4 185.03 0.4L185.03 0.4 180.93 0.4ZM180.93-2.8L185.03-2.8Q187.73-2.8 189.33-4.53 190.93-6.25 190.93-9.05L190.93-9.05 190.93-15.9Q190.93-18.7 189.33-20.43 187.73-22.15 185.13-22.15L185.13-22.15 181.03-22.15Q178.43-22.15 176.83-20.43 175.23-18.7 175.23-15.9L175.23-15.9 175.23-9.05Q175.23-6.2 176.78-4.5 178.33-2.8 180.93-2.8L180.93-2.8Z" opacity="1" transform="matrix(1,0,0,1,0,0)" fill="#000000" class="wordmark-text-0" data-fill-palette-color="primary" id="text-0"></path></svg></g></svg></g></svg></g></svg></g><g transform="matrix(1,0,0,1,147.60593765830964,0)"><svg viewBox="0 0 100.30812468338073 100.30812468338073" height="100.30812468338073" width="100.30812468338073"><g><svg version="1.1" xmlns="http://www.w3.org/2000/svg" xmlns:xlink="http://www.w3.org/1999/xlink" x="0" y="0" viewBox="0 0 100 100" enable-background="new 0 0 100 100" xml:space="preserve" height="100.30812468338073" width="100.30812468338073" class="icon-icon-0" data-fill-palette-color="accent" id="icon-0"><path fill="#000000" d="M97.917 41.667H83.333V47.135L16.667 30.208V27.604L54.167 13.021V16.666H70.833V0H54.167V8.593L16.667 23.306V20.832H0V37.5H16.666V34.506L83.333 51.433V54.558L42.318 83.333H29.167V100H45.833V86.067L85.156 58.333H100V41.667zM58.333 4.167H66.667V12.5H58.333zM12.5 33.333H4.167V25H12.5zM41.667 95.833H33.334V87.5H41.667zM95.833 54.167H87.5V45.834H95.833z" data-fill-palette-color="accent"></path></svg></g></svg></g><g></g></svg></g><defs></defs></svg><rect width="395.52" height="190.02481464440422" fill="none" stroke="none" visibility="hidden"></rect></g></svg></g></svg>