<svg xmlns="http://www.w3.org/2000/svg" version="1.1" xmlns:xlink="http://www.w3.org/1999/xlink" xmlns:svgjs="http://svgjs.dev/svgjs" width="2000" height="1401" viewBox="0 0 2000 1401"><g transform="matrix(1,0,0,1,-0.2694316073379923,-2.25967741935483)"><svg viewBox="0 0 354 248" data-background-color="#161618" preserveAspectRatio="xMidYMid meet" height="1401" width="2000" xmlns="http://www.w3.org/2000/svg" xmlns:xlink="http://www.w3.org/1999/xlink"><g id="tight-bounds" transform="matrix(1,0,0,1,0.047689394498831916,0.4000000000000057)"><svg viewBox="0 0 353.90462121100234 247.2" height="247.2" width="353.90462121100234"><g><svg viewBox="0 0 395.52 276.26806246677063" height="247.2" width="353.90462121100234"><g transform="matrix(1,0,0,1,0,205.55705981425078)"><svg viewBox="0 0 395.52 70.71100265251988" height="70.71100265251988" width="395.52"><g id="textblocktransform"><svg viewBox="0 0 395.52 70.71100265251988" height="70.71100265251988" width="395.52" id="textblock"><g><svg viewBox="0 0 395.52 70.71100265251988" height="70.71100265251988" width="395.52"><g transform="matrix(1,0,0,1,0,0)"><svg width="395.52" viewBox="-1.2 -32.9 188.48 33.699999999999996" height="70.71100265251988" data-palette-color="#ffffff"><g class="wordmark-text-0" data-fill-palette-color="primary" id="text-0"><path d="M13.75 0.5L1.45-30.2Q1.25-30.3 0.8-30.48 0.35-30.65-0.1-30.83-0.55-31-0.88-31.23-1.2-31.45-1.2-31.7L-1.2-31.7Q-1.2-32-1.03-32.45-0.85-32.9-0.25-32.9L-0.25-32.9 8.05-32.9Q8.95-32.9 9.35-32.48 9.75-32.05 9.75-31.8L9.75-31.8Q9.75-31.3 9.3-31.05 8.85-30.8 8.28-30.68 7.7-30.55 7.13-30.45 6.55-30.35 6.25-30.2L6.25-30.2 15.6-5.7 24.25-30.15Q23.9-30.3 23.3-30.43 22.7-30.55 22.1-30.73 21.5-30.9 21.05-31.13 20.6-31.35 20.6-31.7L20.6-31.7Q20.6-32 20.78-32.45 20.95-32.9 21.55-32.9L21.55-32.9 29.35-32.9Q30.25-32.9 30.55-32.48 30.85-32.05 30.85-31.8L30.85-31.8Q30.85-31.3 30.6-31.13 30.35-30.95 29.9-30.85L29.9-30.85Q28.9-30.6 28.45-30.48 28-30.35 27.6-29.65L27.6-29.65 15.8 0.5 13.75 0.5ZM31.55-10.1L31.55-10.1Q31.55-13 32.35-15.5 33.15-18 34.62-19.85 36.1-21.7 38.22-22.78 40.35-23.85 42.95-23.85L42.95-23.85Q45.8-23.85 47.5-22.73 49.2-21.6 50.12-19.85 51.05-18.1 51.35-16.03 51.65-13.95 51.7-12L51.7-12Q51.7-11.25 51.05-11.15 50.4-11.05 49.7-11.05L49.7-11.05 36.15-11.05Q36.25-9.35 36.67-7.75 37.1-6.15 37.92-4.9 38.75-3.65 40.02-2.88 41.3-2.1 43-2.1L43-2.1Q44.85-2.1 46-2.38 47.15-2.65 47.9-2.98 48.65-3.3 49.17-3.58 49.7-3.85 50.3-3.85L50.3-3.85Q51-3.85 51-3.3L51-3.3Q51-2.65 50.25-1.93 49.5-1.2 48.22-0.58 46.95 0.05 45.27 0.43 43.6 0.8 41.75 0.8L41.75 0.8Q39.1 0.8 37.17-0.1 35.25-1 34-2.5 32.75-4 32.15-5.98 31.55-7.95 31.55-10.1ZM36.15-13.3L46.75-13.65Q46.7-15.2 46.5-16.57 46.3-17.95 45.75-18.95 45.2-19.95 44.15-20.55 43.1-21.15 41.4-21.15L41.4-21.15Q38.9-21.15 37.62-18.93 36.35-16.7 36.15-13.3L36.15-13.3ZM55.35-10.1L55.35-10.1Q55.35-13.2 56.17-15.73 57-18.25 58.5-20.05 60-21.85 62.15-22.85 64.3-23.85 67-23.85L67-23.85Q67.9-23.85 69-23.65 70.09-23.45 71.02-22.93 71.95-22.4 72.57-21.55 73.2-20.7 73.2-19.35L73.2-19.35Q73.2-18.55 72.87-17.98 72.55-17.4 72.05-17.03 71.55-16.65 70.95-16.43 70.34-16.2 69.75-16.1L69.75-16.1Q69.3-16.1 69-16.38 68.7-16.65 68.59-17.55L68.59-17.55Q68.34-19.85 67.65-20.58 66.95-21.3 65.45-21.3L65.45-21.3Q63.95-21.3 62.9-20.58 61.85-19.85 61.2-18.57 60.55-17.3 60.25-15.63 59.95-13.95 59.95-12L59.95-12Q59.95-10.2 60.35-8.43 60.75-6.65 61.6-5.25 62.45-3.85 63.8-2.98 65.15-2.1 67.05-2.1L67.05-2.1Q68.05-2.1 68.67-2.43 69.3-2.75 69.82-3.13 70.34-3.5 70.92-3.8 71.5-4.1 72.4-4.1L72.4-4.1Q73.05-4.1 73.3-3.88 73.55-3.65 73.55-3.4L73.55-3.4Q73.55-2.65 72.77-1.9 72-1.15 70.82-0.55 69.65 0.05 68.3 0.43 66.95 0.8 65.8 0.8L65.8 0.8Q63.15 0.8 61.17-0.1 59.2-1 57.9-2.5 56.6-4 55.97-5.98 55.35-7.95 55.35-10.1ZM78.79-2.85L78.79-20.1 76.69-20.1Q76.44-20.2 76.37-20.45 76.29-20.7 76.29-20.9L76.29-20.9Q76.29-21.4 76.54-21.58 76.79-21.75 77.19-21.98 77.59-22.2 78.12-22.6 78.64-23 79.19-23.9L79.19-23.9Q79.54-24.55 79.74-25.48 79.94-26.4 80.17-27.25 80.39-28.1 80.72-28.7 81.04-29.3 81.59-29.3L81.59-29.3Q81.99-29.3 82.47-29.25 82.94-29.2 83.14-29.1L83.14-29.1 83.14-22.9 87.89-22.9Q88.54-22.9 88.72-22.65 88.89-22.4 88.89-22L88.89-22Q88.89-21.4 88.47-20.78 88.04-20.15 87.34-20.1L87.34-20.1 83.14-20.1 83.14-7.35Q83.14-5.55 83.19-4.55 83.24-3.55 83.47-3.05 83.69-2.55 84.17-2.43 84.64-2.3 85.54-2.3L85.54-2.3Q86.24-2.3 87.02-2.58 87.79-2.85 88.64-2.85L88.64-2.85Q89.39-2.85 89.49-2.48 89.59-2.1 89.59-2L89.59-2Q89.59-1.4 88.84-0.9 88.09-0.4 86.97-0.05 85.84 0.3 84.49 0.48 83.14 0.65 81.99 0.65L81.99 0.65Q80.74 0.65 79.77-0.25 78.79-1.15 78.79-2.85L78.79-2.85ZM92.94-10.5L92.94-10.5Q92.94-13.05 93.69-15.45 94.44-17.85 95.94-19.73 97.44-21.6 99.69-22.73 101.94-23.85 104.89-23.85L104.89-23.85Q107.59-23.85 109.52-22.8 111.44-21.75 112.64-20.08 113.84-18.4 114.39-16.32 114.94-14.25 114.94-12.2L114.94-12.2Q114.94-11 114.74-9.63 114.54-8.25 114.09-6.9 113.64-5.55 112.92-4.33 112.19-3.1 111.09-2.15L111.09-2.15Q109.49-0.7 107.27 0.05 105.04 0.8 102.79 0.8L102.79 0.8Q100.74 0.8 98.94 0.1 97.14-0.6 95.82-2.02 94.49-3.45 93.72-5.55 92.94-7.65 92.94-10.5ZM97.49-12.2L97.49-12.2Q97.49-10.4 97.87-8.53 98.24-6.65 99.09-5.13 99.94-3.6 101.42-2.6 102.89-1.6 105.04-1.6L105.04-1.6Q106.54-1.6 107.57-2.35 108.59-3.1 109.24-4.35 109.89-5.6 110.17-7.2 110.44-8.8 110.44-10.5L110.44-10.5Q110.44-12.35 110.07-14.3 109.69-16.25 108.82-17.82 107.94-19.4 106.52-20.43 105.09-21.45 102.94-21.45L102.94-21.45Q101.44-21.45 100.39-20.65 99.34-19.85 98.72-18.53 98.09-17.2 97.79-15.55 97.49-13.9 97.49-12.2ZM119.04-1L119.04-1Q119.04-1.25 119.36-1.48 119.69-1.7 120.14-1.9 120.59-2.1 121.04-2.27 121.49-2.45 121.69-2.55L121.69-2.55 121.69-19Q120.69-19.2 119.64-19.65 118.59-20.1 118.59-20.45L118.59-20.45Q118.59-20.95 119.19-21.48 119.79-22 120.66-22.4 121.54-22.8 122.54-23.08 123.54-23.35 124.29-23.35L124.29-23.35Q124.69-23.35 125.04-23.25 125.39-23.15 125.49-22.85L125.49-22.85 125.49-18.2Q126.54-20.55 128.21-22.2 129.89-23.85 132.14-23.85L132.14-23.85Q132.59-23.85 133.26-23.7 133.94-23.55 134.61-23.13 135.29-22.7 135.76-21.95 136.24-21.2 136.24-20.05L136.24-20.05Q136.24-19.6 135.94-19.18 135.64-18.75 135.19-18.43 134.74-18.1 134.21-17.88 133.69-17.65 133.19-17.6L133.19-17.6Q132.79-17.6 132.51-17.78 132.24-17.95 132.14-18.65L132.14-18.65Q131.89-19.8 131.41-20.15 130.94-20.5 129.99-20.5L129.99-20.5Q129.29-20.5 128.59-19.8 127.89-19.1 127.31-18.07 126.74-17.05 126.36-15.93 125.99-14.8 125.99-13.95L125.99-13.95 125.99-3.6Q125.99-2.9 126.74-2.68 127.49-2.45 128.36-2.33 129.24-2.2 129.96-1.98 130.69-1.75 130.69-1.1L130.69-1.1Q130.69 0 128.99 0L128.99 0 119.99 0Q119.39 0 119.21-0.35 119.04-0.7 119.04-1ZM139.84-1.25L139.84-1.25Q139.84-1.7 140.09-2.25 140.34-2.8 140.71-3.28 141.09-3.75 141.61-4.1 142.14-4.45 142.64-4.45L142.64-4.45Q143.84-4.45 144.64-4.23 145.44-4 145.89-3.65 146.34-3.3 146.51-2.88 146.69-2.45 146.69-2.1L146.69-2.1Q146.69-1.65 146.41-1.15 146.14-0.65 145.71-0.2 145.29 0.25 144.76 0.53 144.24 0.8 143.69 0.8L143.69 0.8Q142.54 0.8 141.79 0.55 141.04 0.3 140.61-0.05 140.19-0.4 140.01-0.75 139.84-1.1 139.84-1.25ZM151.23-1L151.23-1Q151.23-1.25 151.63-1.5 152.03-1.75 152.58-1.98 153.13-2.2 153.66-2.38 154.18-2.55 154.48-2.7L154.48-2.7 154.48-19Q153.98-19.1 153.41-19.28 152.83-19.45 152.36-19.65 151.88-19.85 151.56-20.05 151.23-20.25 151.23-20.45L151.23-20.45Q151.23-20.95 151.83-21.48 152.43-22 153.33-22.4 154.23-22.8 155.23-23.08 156.23-23.35 157.03-23.35L157.03-23.35Q157.48-23.35 158.03-23.25 158.58-23.15 158.68-22.85L158.68-22.85 158.68-3.7Q158.68-2.95 159.23-2.68 159.78-2.4 160.43-2.25 161.08-2.1 161.63-1.9 162.18-1.7 162.18-1.1L162.18-1.1Q162.18 0 160.48 0L160.48 0 152.18 0Q151.58 0 151.41-0.35 151.23-0.7 151.23-1ZM156.58-27.7L156.58-27.7Q155.48-27.7 154.73-27.98 153.98-28.25 153.58-28.6 153.18-28.95 153.01-29.3 152.83-29.65 152.83-29.8L152.83-29.8Q152.83-30.2 153.08-30.75 153.33-31.3 153.73-31.78 154.13-32.25 154.63-32.58 155.13-32.9 155.63-32.9L155.63-32.9Q157.83-32.9 158.68-32.1 159.53-31.3 159.53-30.6L159.53-30.6Q159.53-30.15 159.26-29.65 158.98-29.15 158.56-28.73 158.13-28.3 157.61-28 157.08-27.7 156.58-27.7ZM165.28-10.5L165.28-10.5Q165.28-13.05 166.03-15.45 166.78-17.85 168.28-19.73 169.78-21.6 172.03-22.73 174.28-23.85 177.23-23.85L177.23-23.85Q179.93-23.85 181.86-22.8 183.78-21.75 184.98-20.08 186.18-18.4 186.73-16.32 187.28-14.25 187.28-12.2L187.28-12.2Q187.28-11 187.08-9.63 186.88-8.25 186.43-6.9 185.98-5.55 185.26-4.33 184.53-3.1 183.43-2.15L183.43-2.15Q181.83-0.7 179.61 0.05 177.38 0.8 175.13 0.8L175.13 0.8Q173.08 0.8 171.28 0.1 169.48-0.6 168.16-2.02 166.83-3.45 166.06-5.55 165.28-7.65 165.28-10.5ZM169.83-12.2L169.83-12.2Q169.83-10.4 170.21-8.53 170.58-6.65 171.43-5.13 172.28-3.6 173.76-2.6 175.23-1.6 177.38-1.6L177.38-1.6Q178.88-1.6 179.91-2.35 180.93-3.1 181.58-4.35 182.23-5.6 182.51-7.2 182.78-8.8 182.78-10.5L182.78-10.5Q182.78-12.35 182.41-14.3 182.03-16.25 181.16-17.82 180.28-19.4 178.86-20.43 177.43-21.45 175.28-21.45L175.28-21.45Q173.78-21.45 172.73-20.65 171.68-19.85 171.06-18.53 170.43-17.2 170.13-15.55 169.83-13.9 169.83-12.2Z" fill="#ffffff" data-fill-palette-color="primary"></path></g></svg></g></svg></g></svg></g></svg></g><g transform="matrix(1,0,0,1,111.67464075507088,0)"><svg viewBox="0 0 172.17071848985822 172.17071848985822" height="172.17071848985822" width="172.17071848985822"><g><svg></svg></g><g id="icon-0"><svg viewBox="0 0 172.17071848985822 172.17071848985822" height="172.17071848985822" width="172.17071848985822"><g><path d="M0 86.085c0-47.544 38.542-86.085 86.085-86.085 47.544 0 86.085 38.542 86.086 86.085 0 47.544-38.542 86.085-86.086 86.086-47.544 0-86.085-38.542-86.085-86.086zM86.085 165.794c44.022 0 79.709-35.687 79.709-79.709 0-44.022-35.687-79.709-79.709-79.708-44.022 0-79.709 35.687-79.708 79.708 0 44.022 35.687 79.709 79.708 79.709z" data-fill-palette-color="accent" fill="#ffffff" stroke="transparent"></path></g><g transform="matrix(1,0,0,1,36.267920295656296,39.66370237785387)"><svg viewBox="0 0 99.63487789854562 92.84331373415047" height="92.84331373415047" width="99.63487789854562"><g><svg xmlns="http://www.w3.org/2000/svg" xmlns:xlink="http://www.w3.org/1999/xlink" version="1.1" x="0" y="0" viewBox="212.62299899294618 215.5839966103647 86.74600355132111 80.83300338963528" enable-background="new 206 206 100 100" xml:space="preserve" height="92.84331373415047" width="99.63487789854562" class="icon-dxe-0" data-fill-palette-color="accent" id="dxe-0"><path d="M288.869 248.437C283.769 248.437 279.51 252.092 278.566 256.919L260.537 253.902A11.83 11.83 0 0 0 257.871 244.599L274.457 229.954A6.4 6.4 0 0 0 279.372 231.9H279.38A6.417 6.417 0 0 0 285.468 225.5 6.41 6.41 0 0 0 282.202 219.918C282.198 219.916 282.194 219.912 282.188 219.91A6.36 6.36 0 0 0 278.495 219.117H278.489A6.42 6.42 0 0 0 272.676 224.923V224.939A6.37 6.37 0 0 0 274.071 229.517L257.485 244.162A11.85 11.85 0 0 0 241.809 242.631L232.183 230.046A8.16 8.16 0 0 0 235.09 224.794C235.09 224.787 235.093 224.781 235.093 224.774A8.1 8.1 0 0 0 234.606 220.798C234.602 220.785 234.596 220.773 234.59 220.76A8.2 8.2 0 0 0 232.832 218.049C232.828 218.045 232.827 218.039 232.823 218.035 232.819 218.032 232.814 218.031 232.811 218.028A8.2 8.2 0 0 0 230.108 216.203 8.1 8.1 0 0 0 226.995 215.584C222.494 215.584 218.832 219.246 218.832 223.747A8.14 8.14 0 0 0 221.269 229.557C221.274 229.563 221.276 229.57 221.281 229.576 221.288 229.582 221.297 229.584 221.303 229.591A8.2 8.2 0 0 0 224.049 231.358 8.1 8.1 0 0 0 228.02 231.843L228.025 231.844C228.033 231.844 228.04 231.841 228.046 231.84A8.1 8.1 0 0 0 231.715 230.4L241.342 242.986C238.64 245.165 236.906 248.499 236.906 252.232 236.906 255.207 238.009 257.926 239.822 260.012L226.612 272.065A9 9 0 0 0 226.305 271.766C226.301 271.762 226.299 271.756 226.294 271.75 226.289 271.745 226.281 271.743 226.275 271.738A8.17 8.17 0 0 0 220.786 269.613C216.285 269.613 212.623 273.274 212.623 277.776A8.1 8.1 0 0 0 213.082 280.468 8.2 8.2 0 0 0 214.745 283.26C214.751 283.268 214.754 283.277 214.761 283.283 214.766 283.289 214.774 283.29 214.779 283.295A8.2 8.2 0 0 0 217.359 285.182L217.387 285.194A8.1 8.1 0 0 0 221.126 285.931L221.128 285.93C225.357 285.755 228.765 282.347 228.941 278.118V278.117A8.1 8.1 0 0 0 228.205 274.374C228.202 274.365 228.198 274.359 228.195 274.353A8.2 8.2 0 0 0 227.006 272.497L240.216 260.444A11.83 11.83 0 0 0 248.78 264.106C250.203 264.106 251.567 263.854 252.833 263.393L260.956 284.155A6.42 6.42 0 0 0 257.151 290.009C257.151 293.543 260.026 296.417 263.559 296.417S269.967 293.543 269.967 290.009 267.092 283.6 263.559 283.6C262.838 283.6 262.147 283.721 261.498 283.942L253.376 263.179A11.92 11.92 0 0 0 260.438 254.48L278.465 257.497C278.401 257.97 278.365 258.451 278.365 258.94 278.365 264.731 283.076 269.443 288.865 269.443 294.658 269.443 299.369 264.731 299.369 258.94 299.373 253.149 294.66 248.437 288.869 248.437M280.184 231.214L284.774 226.625A5.84 5.84 0 0 1 280.184 231.214M277.635 219.853L273.41 224.078A5.85 5.85 0 0 1 277.635 219.853M273.817 228.034A5.8 5.8 0 0 1 273.253 225.063L278.622 219.695A5.8 5.8 0 0 1 281.593 220.257L280.599 221.253A0.294 0.294 0 0 0 280.806 221.752 0.3 0.3 0 0 0 281.013 221.666L282.126 220.552A5.9 5.9 0 0 1 283.917 222.294L282.741 223.471A0.295 0.295 0 0 0 282.741 223.885 0.29 0.29 0 0 0 283.155 223.885L284.223 222.815C284.645 223.62 284.883 224.533 284.883 225.501 284.883 225.566 284.879 225.63 284.877 225.694L279.252 231.32C279.188 231.322 279.123 231.325 279.059 231.325A5.8 5.8 0 0 1 276.371 230.665L281.215 225.821A0.292 0.292 0 1 0 280.803 225.407L275.852 230.358A5.8 5.8 0 0 1 274.112 228.566L278.563 224.114A0.292 0.292 0 1 0 278.151 223.7zM225.38 216.343L219.594 222.13A7.6 7.6 0 0 1 225.38 216.343M221.91 229.359L226.791 224.479A0.293 0.293 0 0 0 226.377 224.065L221.493 228.948A7.6 7.6 0 0 1 220.078 226.832L224.138 222.772C224.252 222.658 224.252 222.473 224.138 222.358S223.838 222.244 223.725 222.358L219.842 226.24A7.6 7.6 0 0 1 219.447 223.101L226.352 216.195A7.5 7.5 0 0 1 229.49 216.589L226.171 219.909A0.292 0.292 0 0 0 226.584 220.322L230.082 216.824C230.867 217.177 231.582 217.657 232.2 218.242L228.313 222.126A0.293 0.293 0 0 0 228.519 222.626 0.3 0.3 0 0 0 228.726 222.54L232.61 218.658A7.6 7.6 0 0 1 233.985 220.814L224.068 230.732A7.5 7.5 0 0 1 221.91 229.359M228.913 231.078L229.331 230.66A0.295 0.295 0 0 0 229.331 230.246 0.293 0.293 0 0 0 228.917 230.246L227.895 231.269A7.6 7.6 0 0 1 224.673 230.958L234.209 221.421A7.5 7.5 0 0 1 234.52 224.643L230.945 228.218A0.292 0.292 0 1 0 231.359 228.631L234.329 225.661A7.61 7.61 0 0 1 228.913 231.078M213.212 277.776C213.212 274.472 215.338 271.657 218.293 270.622L214.564 274.351A0.292 0.292 0 0 0 214.977 274.764L219.417 270.324A7.6 7.6 0 0 1 222.802 270.471L213.486 279.788A7.6 7.6 0 0 1 213.212 277.776M228.368 277.776C228.368 277.848 228.364 277.921 228.362 277.993L227.664 278.692A0.292 0.292 0 0 0 228.077 279.105L228.285 278.898A7.6 7.6 0 0 1 221.911 285.271L225.689 281.492A0.292 0.292 0 0 0 225.276 281.079L221.005 285.349C220.934 285.351 220.861 285.354 220.79 285.354 219.806 285.354 218.865 285.164 218.002 284.821L227.834 274.989C228.178 275.851 228.368 276.792 228.368 277.776M227.58 274.416L217.43 284.566A7.7 7.7 0 0 1 215.383 283.079L221.102 277.359A0.292 0.292 0 0 0 220.689 276.946L214.99 282.644A7.6 7.6 0 0 1 213.687 280.414L223.429 270.673A7.6 7.6 0 0 1 225.659 271.975L222.72 274.915A0.294 0.294 0 0 0 222.927 275.414C223.002 275.414 223.077 275.386 223.134 275.328L226.093 272.369A7.6 7.6 0 0 1 227.58 274.416M263.563 284.184A5.83 5.83 0 0 1 269.387 290.008C269.387 293.219 266.774 295.831 263.563 295.831S257.739 293.219 257.739 290.008A5.83 5.83 0 0 1 263.563 284.184M248.783 240.942C252.043 240.942 254.982 242.332 257.045 244.548L255.656 245.774A9.41 9.41 0 0 0 243.289 244.566L242.163 243.095A11.23 11.23 0 0 1 248.783 240.942M248.783 245.328A6.87 6.87 0 0 0 244.828 246.578L243.643 245.03A8.83 8.83 0 0 1 255.218 246.162L253.757 247.452A6.88 6.88 0 0 0 248.783 245.328M255.102 252.232C255.102 255.716 252.268 258.55 248.784 258.55S242.466 255.716 242.466 252.232 245.3 245.913 248.784 245.913 255.102 248.747 255.102 252.232M244.364 246.933A6.89 6.89 0 0 0 243.495 256.661L242.056 257.975A8.84 8.84 0 0 1 243.18 245.383zM243.889 257.095A6.89 6.89 0 0 0 251.024 258.759L251.735 260.576A8.82 8.82 0 0 1 242.45 258.407zM251.568 258.547A6.93 6.93 0 0 0 255.538 253.659L257.464 253.981A8.89 8.89 0 0 1 252.279 260.363zM255.632 253.082A6.83 6.83 0 0 0 254.145 247.889L255.607 246.598A8.8 8.8 0 0 1 257.557 253.404zM237.494 252.232C237.494 248.688 239.137 245.522 241.699 243.45L242.824 244.92A9.43 9.43 0 0 0 239.345 252.232 9.4 9.4 0 0 0 241.622 258.37L240.255 259.617A11.24 11.24 0 0 1 237.494 252.232M248.783 263.52A11.26 11.26 0 0 1 240.65 260.049L242.017 258.801A9.4 9.4 0 0 0 248.783 261.668 9.4 9.4 0 0 0 251.947 261.121L252.623 262.847C251.423 263.283 250.131 263.52 248.783 263.52M253.167 262.635L252.492 260.909A9.47 9.47 0 0 0 258.037 254.078L259.863 254.383C259.143 258.111 256.582 261.19 253.167 262.635M259.961 253.806L258.133 253.5A9.4 9.4 0 0 0 256.045 246.211L257.434 244.986A11.24 11.24 0 0 1 259.961 253.806M288.869 268.857C283.402 268.857 278.953 264.409 278.953 258.939 278.953 258.483 278.986 258.034 279.047 257.593L280.777 257.883C280.732 258.229 280.707 258.58 280.707 258.939 280.707 263.441 284.369 267.102 288.869 267.102 293.371 267.102 297.033 263.441 297.033 258.939 297.033 254.439 293.371 250.776 288.869 250.776 284.93 250.776 281.631 253.585 280.873 257.305L279.143 257.016C280.039 252.465 284.061 249.022 288.87 249.022 294.341 249.022 298.788 253.471 298.788 258.939 298.787 264.409 294.34 268.857 288.869 268.857M281.291 258.939C281.291 254.761 284.691 251.361 288.869 251.361 293.049 251.361 296.447 254.76 296.447 258.939S293.049 266.517 288.869 266.517C284.692 266.517 281.291 263.119 281.291 258.939" fill="#ffffff" data-fill-palette-color="accent"></path></svg></g></svg></g></svg></g></svg></g><g></g></svg></g><defs></defs></svg><rect width="353.90462121100234" height="247.2" fill="none" stroke="none" visibility="hidden"></rect></g></svg></g></svg>